<svg width="23" height="25" viewBox="0 0 23 25" fill="none" xmlns="http://www.w3.org/2000/svg">
<path d="M5.68277 18.7497C5.59962 18.5604 5.55008 18.3604 5.49346 18.1622L3.08731 19.5283C2.95268 19.6047 2.80058 19.6442 2.64615 19.6428C2.49171 19.6415 2.34032 19.5993 2.20703 19.5206C2.07374 19.4419 1.96319 19.3293 1.88639 19.194C1.80958 19.0588 1.76919 18.9056 1.76923 18.7497V2.67764C1.76919 2.52176 1.80958 2.36857 1.88639 2.23333C1.96319 2.09809 2.07374 1.98551 2.20703 1.90677C2.34032 1.82803 2.49171 1.78589 2.64615 1.78453C2.80058 1.78318 2.95268 1.82265 3.08731 1.89904L17.2412 9.93509C17.5419 10.1065 17.6923 10.4101 17.6923 10.7137H19.4615C19.4615 9.80294 19.0104 8.8904 18.1081 8.37966L3.95423 0.343615C3.55048 0.114537 3.09435 -0.00389227 2.6312 9.75775e-05C2.16804 0.00408742 1.71399 0.130358 1.31417 0.366358C0.914342 0.602358 0.582672 0.939869 0.352125 1.34534C0.121577 1.75082 0.0001802 2.21014 0 2.67764V18.7497C0.0001802 19.2172 0.121577 19.6766 0.352125 20.082C0.582672 20.4875 0.914342 20.825 1.31417 21.061C1.71399 21.297 2.16804 21.4233 2.6312 21.4273C3.09435 21.4313 3.55048 21.3128 3.95423 21.0838L5.33069 20.3016C5.359 19.7641 5.46692 19.2373 5.68277 18.748V18.7497Z" fill="#E8823A"/>
<path d="M23 15.1782C23 13.7013 21.8093 12.4995 20.3461 12.4995H9.73075C8.2676 12.4995 7.0769 13.7013 7.0769 15.1782V16.964C7.0769 17.6533 7.34229 18.2748 7.7669 18.7498C7.34229 19.2248 7.0769 19.8462 7.0769 20.5356V22.3213C7.0769 23.7982 8.2676 25 9.73075 25H13.2692C13.9521 25 14.5678 24.7322 15.0384 24.3036C15.5091 24.7322 16.1248 25 16.8077 25H20.3461C21.8093 25 23 23.7982 23 22.3213V20.5356C23 19.8462 22.7346 19.2248 22.31 18.7498C22.7346 18.2748 23 17.6533 23 16.964V15.1782ZM8.84614 15.1782C8.84614 14.9414 8.93933 14.7143 9.10523 14.5468C9.27113 14.3794 9.49614 14.2853 9.73075 14.2853H20.3461C20.5808 14.2853 20.8058 14.3794 20.9717 14.5468C21.1376 14.7143 21.2308 14.9414 21.2308 15.1782V16.964C21.2308 17.2008 21.1376 17.4279 20.9717 17.5954C20.8058 17.7628 20.5808 17.8569 20.3461 17.8569H9.73075C9.49614 17.8569 9.27113 17.7628 9.10523 17.5954C8.93933 17.4279 8.84614 17.2008 8.84614 16.964V15.1782ZM13.2692 23.2142H9.73075C9.49614 23.2142 9.27113 23.1202 9.10523 22.9527C8.93933 22.7853 8.84614 22.5582 8.84614 22.3213V20.5356C8.84614 20.2987 8.93933 20.0716 9.10523 19.9042C9.27113 19.7367 9.49614 19.6427 9.73075 19.6427H14.1538V22.3213C14.1538 22.5582 14.0606 22.7853 13.8947 22.9527C13.7288 23.1202 13.5038 23.2142 13.2692 23.2142ZM21.2308 22.3213C21.2308 22.5582 21.1376 22.7853 20.9717 22.9527C20.8058 23.1202 20.5808 23.2142 20.3461 23.2142H16.8077C16.5731 23.2142 16.3481 23.1202 16.1822 22.9527C16.0163 22.7853 15.9231 22.5582 15.9231 22.3213V19.6427H20.3461C20.5808 19.6427 20.8058 19.7367 20.9717 19.9042C21.1376 20.0716 21.2308 20.2987 21.2308 20.5356V22.3213Z" fill="#E8823A"/>
</svg>
